<svg xmlns="http://www.w3.org/2000/svg" xmlns:xlink="http://www.w3.org/1999/xlink" width="512" zoomAndPan="magnify" viewBox="0 0 384 383.999986" height="512" preserveAspectRatio="xMidYMid meet" version="1.0"><defs><clipPath id="ad8cee1da3"><path d="M 3 33.167969 L 383.914062 33.167969 L 383.914062 351.167969 L 3 351.167969 Z M 3 33.167969 " clip-rule="nonzero"/></clipPath></defs><path fill="#6c757d" d="M 202.578125 133.007812 L 219.015625 133.007812 L 219.015625 116.082031 C 219.171875 116.082031 203.351562 117.015625 202.578125 133.007812 Z M 202.578125 133.007812 " fill-opacity="1" fill-rule="nonzero"/><path fill="#6c757d" d="M 202.578125 137.046875 L 219.171875 137.046875 L 219.171875 153.8125 L 202.578125 153.8125 Z M 202.578125 137.046875 " fill-opacity="1" fill-rule="nonzero"/><path fill="#6c757d" d="M 222.273438 116.082031 L 222.273438 133.007812 L 238.710938 133.007812 C 238.089844 117.015625 222.273438 116.082031 222.273438 116.082031 Z M 222.273438 116.082031 " fill-opacity="1" fill-rule="nonzero"/><path fill="#6c757d" d="M 222.273438 137.046875 L 238.867188 137.046875 L 238.867188 153.8125 L 222.273438 153.8125 Z M 222.273438 137.046875 " fill-opacity="1" fill-rule="nonzero"/><g clip-path="url(#ad8cee1da3)"><path fill="#6c757d" d="M 223.667969 33.167969 L 179.78125 87.511719 L 179.78125 67.015625 L 163.5 67.015625 L 163.5 107.699219 L 117.90625 164.0625 L 220.566406 88.910156 L 360.601562 193.097656 C 233.128906 153.503906 73.554688 174.464844 20.980469 233.160156 C -38.878906 304.429688 70.140625 351.167969 70.140625 351.167969 C 21.449219 308.777344 23.464844 267.320312 51.84375 239.679688 C 94.023438 200.863281 144.890625 193.097656 169.855469 188.128906 C 277.171875 169.496094 357.964844 196.824219 373.9375 202.878906 L 374.867188 203.5 C 176.371094 154.902344 88.597656 227.878906 88.597656 227.878906 C 235.609375 164.0625 383.707031 210.332031 383.707031 210.332031 Z M 223.667969 33.167969 " fill-opacity="1" fill-rule="nonzero"/></g></svg>