<svg xmlns="http://www.w3.org/2000/svg" xmlns:xlink="http://www.w3.org/1999/xlink" width="512" zoomAndPan="magnify" viewBox="0 0 384 383.999986" height="512" preserveAspectRatio="xMidYMid meet" version="1.0"><defs><g/><clipPath id="2d7afac816"><path d="M 3 27.933594 L 383.914062 27.933594 L 383.914062 345.933594 L 3 345.933594 Z M 3 27.933594 " clip-rule="nonzero"/></clipPath></defs><path fill="#198754" d="M 202.578125 127.773438 L 219.015625 127.773438 L 219.015625 110.851562 C 219.171875 110.851562 203.351562 111.78125 202.578125 127.773438 Z M 202.578125 127.773438 " fill-opacity="1" fill-rule="nonzero"/><path fill="#198754" d="M 202.578125 131.8125 L 219.171875 131.8125 L 219.171875 148.582031 L 202.578125 148.582031 Z M 202.578125 131.8125 " fill-opacity="1" fill-rule="nonzero"/><path fill="#198754" d="M 222.273438 110.851562 L 222.273438 127.773438 L 238.710938 127.773438 C 238.089844 111.78125 222.273438 110.851562 222.273438 110.851562 Z M 222.273438 110.851562 " fill-opacity="1" fill-rule="nonzero"/><path fill="#198754" d="M 222.273438 131.8125 L 238.867188 131.8125 L 238.867188 148.582031 L 222.273438 148.582031 Z M 222.273438 131.8125 " fill-opacity="1" fill-rule="nonzero"/><g clip-path="url(#2d7afac816)"><path fill="#198754" d="M 223.667969 27.933594 L 179.78125 82.28125 L 179.78125 61.785156 L 163.5 61.785156 L 163.5 102.464844 L 117.90625 158.828125 L 220.566406 83.675781 L 360.601562 187.867188 C 233.128906 148.269531 73.554688 169.234375 20.980469 227.925781 C -38.878906 299.195312 70.140625 345.933594 70.140625 345.933594 C 21.449219 303.542969 23.464844 262.085938 51.84375 234.449219 C 94.023438 195.628906 144.890625 187.867188 169.855469 182.898438 C 277.171875 164.265625 357.964844 191.59375 373.9375 197.648438 L 374.867188 198.269531 C 176.371094 149.667969 88.597656 222.648438 88.597656 222.648438 C 235.609375 158.828125 383.707031 205.101562 383.707031 205.101562 Z M 223.667969 27.933594 " fill-opacity="1" fill-rule="nonzero"/></g><g fill="#ffffff" fill-opacity="1"><g transform="translate(83.204429, 257.282603)"><g><path d="M 9.484375 0 L 5.4375 0 L 5.4375 -26.234375 L 9.484375 -26.234375 L 9.484375 -12.625 L 15.328125 -17.578125 L 25.34375 -26.234375 L 31.03125 -26.234375 L 18.4375 -15.5625 L 30.8125 0 L 25.5625 0 L 15.40625 -12.96875 L 9.484375 -7.90625 Z M 9.484375 0 "/></g></g></g><g fill="#ffffff" fill-opacity="1"><g transform="translate(112.510645, 257.282603)"><g><path d="M 27.140625 -26.234375 L 31.1875 -26.234375 L 31.1875 0 L 27.25 0 L 8.8125 -20.390625 C 8.957031 -18.796875 9.101562 -17.207031 9.25 -15.625 C 9.40625 -14.050781 9.484375 -12.476562 9.484375 -10.90625 L 9.484375 0 L 5.4375 0 L 5.4375 -26.234375 L 9.296875 -26.234375 L 27.734375 -5.359375 C 27.585938 -6.585938 27.460938 -7.90625 27.359375 -9.3125 C 27.265625 -10.726562 27.203125 -12.144531 27.171875 -13.5625 C 27.148438 -14.988281 27.140625 -16.34375 27.140625 -17.625 Z M 27.140625 -26.234375 "/></g></g></g><g fill="#ffffff" fill-opacity="1"><g transform="translate(143.878069, 257.282603)"><g><path d="M 32.53125 -13.125 C 32.53125 -11.21875 32.175781 -9.445312 31.46875 -7.8125 C 30.757812 -6.175781 29.753906 -4.742188 28.453125 -3.515625 C 27.148438 -2.296875 25.609375 -1.34375 23.828125 -0.65625 C 22.054688 0.03125 20.125 0.375 18.03125 0.375 C 15.882812 0.375 13.921875 0.03125 12.140625 -0.65625 C 10.367188 -1.34375 8.835938 -2.296875 7.546875 -3.515625 C 6.265625 -4.742188 5.265625 -6.175781 4.546875 -7.8125 C 3.835938 -9.445312 3.484375 -11.21875 3.484375 -13.125 C 3.484375 -15.019531 3.835938 -16.785156 4.546875 -18.421875 C 5.265625 -20.054688 6.265625 -21.484375 7.546875 -22.703125 C 8.835938 -23.929688 10.367188 -24.890625 12.140625 -25.578125 C 13.921875 -26.265625 15.882812 -26.609375 18.03125 -26.609375 C 20.125 -26.609375 22.054688 -26.265625 23.828125 -25.578125 C 25.609375 -24.890625 27.148438 -23.929688 28.453125 -22.703125 C 29.753906 -21.484375 30.757812 -20.054688 31.46875 -18.421875 C 32.175781 -16.785156 32.53125 -15.019531 32.53125 -13.125 Z M 28.40625 -13.125 C 28.40625 -14.945312 27.960938 -16.578125 27.078125 -18.015625 C 26.191406 -19.453125 24.96875 -20.585938 23.40625 -21.421875 C 21.84375 -22.253906 20.050781 -22.671875 18.03125 -22.671875 C 15.957031 -22.671875 14.140625 -22.253906 12.578125 -21.421875 C 11.015625 -20.585938 9.796875 -19.453125 8.921875 -18.015625 C 8.046875 -16.578125 7.609375 -14.945312 7.609375 -13.125 C 7.609375 -11.300781 8.046875 -9.671875 8.921875 -8.234375 C 9.796875 -6.796875 11.015625 -5.65625 12.578125 -4.8125 C 14.140625 -3.976562 15.957031 -3.5625 18.03125 -3.5625 C 20.050781 -3.5625 21.84375 -3.976562 23.40625 -4.8125 C 24.96875 -5.65625 26.191406 -6.800781 27.078125 -8.25 C 27.960938 -9.695312 28.40625 -11.320312 28.40625 -13.125 Z M 28.40625 -13.125 "/></g></g></g><g fill="#ffffff" fill-opacity="1"><g transform="translate(174.645868, 257.282603)"><g><path d="M 40.890625 -26.234375 L 31.15625 0 L 28.34375 0 L 21.328125 -16.375 L 14.359375 0 L 11.4375 0 L 2.328125 -26.234375 L 6.703125 -26.234375 L 12.0625 -10.390625 C 12.289062 -9.710938 12.503906 -9.015625 12.703125 -8.296875 C 12.898438 -7.585938 13.085938 -6.910156 13.265625 -6.265625 C 13.492188 -6.910156 13.738281 -7.585938 14 -8.296875 C 14.257812 -9.015625 14.539062 -9.722656 14.84375 -10.421875 L 19.609375 -21.703125 L 23.390625 -21.703125 L 28.03125 -10.453125 C 28.632812 -8.984375 29.148438 -7.625 29.578125 -6.375 C 29.753906 -7.019531 29.953125 -7.695312 30.171875 -8.40625 C 30.398438 -9.125 30.640625 -9.847656 30.890625 -10.578125 L 36.546875 -26.234375 Z M 40.890625 -26.234375 "/></g></g></g><g fill="#ffffff" fill-opacity="1"><g transform="translate(212.609162, 257.282603)"><g/></g></g><g fill="#ffffff" fill-opacity="1"><g transform="translate(222.165241, 257.282603)"><g><path d="M 29.203125 -26.234375 L 17.921875 -10.765625 L 17.921875 0 L 13.875 0 L 13.875 -10.609375 L 1.84375 -26.234375 L 7.125 -26.234375 L 15.96875 -14.359375 L 24.328125 -26.234375 Z M 29.203125 -26.234375 "/></g></g></g><g fill="#ffffff" fill-opacity="1"><g transform="translate(247.948663, 257.282603)"><g><path d="M 32.53125 -13.125 C 32.53125 -11.21875 32.175781 -9.445312 31.46875 -7.8125 C 30.757812 -6.175781 29.753906 -4.742188 28.453125 -3.515625 C 27.148438 -2.296875 25.609375 -1.34375 23.828125 -0.65625 C 22.054688 0.03125 20.125 0.375 18.03125 0.375 C 15.882812 0.375 13.921875 0.03125 12.140625 -0.65625 C 10.367188 -1.34375 8.835938 -2.296875 7.546875 -3.515625 C 6.265625 -4.742188 5.265625 -6.175781 4.546875 -7.8125 C 3.835938 -9.445312 3.484375 -11.21875 3.484375 -13.125 C 3.484375 -15.019531 3.835938 -16.785156 4.546875 -18.421875 C 5.265625 -20.054688 6.265625 -21.484375 7.546875 -22.703125 C 8.835938 -23.929688 10.367188 -24.890625 12.140625 -25.578125 C 13.921875 -26.265625 15.882812 -26.609375 18.03125 -26.609375 C 20.125 -26.609375 22.054688 -26.265625 23.828125 -25.578125 C 25.609375 -24.890625 27.148438 -23.929688 28.453125 -22.703125 C 29.753906 -21.484375 30.757812 -20.054688 31.46875 -18.421875 C 32.175781 -16.785156 32.53125 -15.019531 32.53125 -13.125 Z M 28.40625 -13.125 C 28.40625 -14.945312 27.960938 -16.578125 27.078125 -18.015625 C 26.191406 -19.453125 24.96875 -20.585938 23.40625 -21.421875 C 21.84375 -22.253906 20.050781 -22.671875 18.03125 -22.671875 C 15.957031 -22.671875 14.140625 -22.253906 12.578125 -21.421875 C 11.015625 -20.585938 9.796875 -19.453125 8.921875 -18.015625 C 8.046875 -16.578125 7.609375 -14.945312 7.609375 -13.125 C 7.609375 -11.300781 8.046875 -9.671875 8.921875 -8.234375 C 9.796875 -6.796875 11.015625 -5.65625 12.578125 -4.8125 C 14.140625 -3.976562 15.957031 -3.5625 18.03125 -3.5625 C 20.050781 -3.5625 21.84375 -3.976562 23.40625 -4.8125 C 24.96875 -5.65625 26.191406 -6.800781 27.078125 -8.25 C 27.960938 -9.695312 28.40625 -11.320312 28.40625 -13.125 Z M 28.40625 -13.125 "/></g></g></g><g fill="#ffffff" fill-opacity="1"><g transform="translate(278.716468, 257.282603)"><g><path d="M 29.09375 -26.28125 L 29.09375 -11.46875 C 29.09375 -9.21875 28.582031 -7.210938 27.5625 -5.453125 C 26.550781 -3.691406 25.144531 -2.304688 23.34375 -1.296875 C 21.550781 -0.285156 19.457031 0.21875 17.0625 0.21875 C 14.6875 0.21875 12.59375 -0.285156 10.78125 -1.296875 C 8.96875 -2.304688 7.550781 -3.691406 6.53125 -5.453125 C 5.519531 -7.210938 5.015625 -9.21875 5.015625 -11.46875 L 5.015625 -26.28125 L 9.078125 -26.28125 L 9.078125 -11.6875 C 9.078125 -10.144531 9.4375 -8.765625 10.15625 -7.546875 C 10.882812 -6.335938 11.851562 -5.394531 13.0625 -4.71875 C 14.269531 -4.050781 15.601562 -3.71875 17.0625 -3.71875 C 18.601562 -3.71875 19.984375 -4.050781 21.203125 -4.71875 C 22.429688 -5.394531 23.410156 -6.335938 24.140625 -7.546875 C 24.867188 -8.765625 25.234375 -10.144531 25.234375 -11.6875 L 25.234375 -26.28125 Z M 29.09375 -26.28125 "/></g></g></g><g fill="#ffffff" fill-opacity="1"><g transform="translate(307.572972, 257.282603)"><g><path d="M 27.359375 -18.03125 C 27.359375 -16.300781 26.820312 -14.726562 25.75 -13.3125 C 24.675781 -11.90625 23.316406 -10.90625 21.671875 -10.3125 L 28.671875 0.03125 L 23.6875 0 L 17.125 -9.75 L 9.484375 -9.75 L 9.484375 0 L 5.4375 0 L 5.4375 -26.234375 L 18.921875 -26.234375 C 20.398438 -26.234375 21.773438 -25.882812 23.046875 -25.1875 C 24.328125 -24.488281 25.363281 -23.523438 26.15625 -22.296875 C 26.957031 -21.078125 27.359375 -19.65625 27.359375 -18.03125 Z M 18 -22.34375 L 9.484375 -22.34375 L 9.484375 -13.640625 L 18.484375 -13.640625 C 19.359375 -13.640625 20.144531 -13.84375 20.84375 -14.25 C 21.539062 -14.664062 22.09375 -15.210938 22.5 -15.890625 C 22.914062 -16.566406 23.125 -17.289062 23.125 -18.0625 C 23.125 -18.882812 22.882812 -19.617188 22.40625 -20.265625 C 21.9375 -20.921875 21.3125 -21.429688 20.53125 -21.796875 C 19.757812 -22.160156 18.914062 -22.34375 18 -22.34375 Z M 18 -22.34375 "/></g></g></g><g fill="#ffffff" fill-opacity="1"><g transform="translate(38.309901, 309.032599)"><g><path d="M 27.140625 -26.234375 L 31.1875 -26.234375 L 31.1875 0 L 27.25 0 L 8.8125 -20.390625 C 8.957031 -18.796875 9.101562 -17.207031 9.25 -15.625 C 9.40625 -14.050781 9.484375 -12.476562 9.484375 -10.90625 L 9.484375 0 L 5.4375 0 L 5.4375 -26.234375 L 9.296875 -26.234375 L 27.734375 -5.359375 C 27.585938 -6.585938 27.460938 -7.90625 27.359375 -9.3125 C 27.265625 -10.726562 27.203125 -12.144531 27.171875 -13.5625 C 27.148438 -14.988281 27.140625 -16.34375 27.140625 -17.625 Z M 27.140625 -26.234375 "/></g></g></g><g fill="#ffffff" fill-opacity="1"><g transform="translate(69.677325, 309.032599)"><g><path d="M 5.4375 -26.234375 L 24.890625 -26.234375 L 24.890625 -22.34375 L 9.484375 -22.34375 L 9.484375 -15.40625 L 22.828125 -15.40625 L 22.828125 -11.5 L 9.484375 -11.5 L 9.484375 -3.890625 L 24.890625 -3.890625 L 24.890625 0 L 5.4375 0 Z M 5.4375 -26.234375 "/></g></g></g><g fill="#ffffff" fill-opacity="1"><g transform="translate(93.9242, 309.032599)"><g><path d="M 20.609375 0 L 5.171875 0 L 5.171875 -3.890625 L 10.875 -3.890625 L 10.875 -22.34375 L 5.171875 -22.34375 L 5.171875 -26.234375 L 20.609375 -26.234375 L 20.609375 -22.34375 L 14.921875 -22.34375 L 14.921875 -3.890625 L 20.609375 -3.890625 Z M 20.609375 0 "/></g></g></g><g fill="#ffffff" fill-opacity="1"><g transform="translate(114.498381, 309.032599)"><g><path d="M 18.515625 -26.46875 C 20.210938 -26.46875 21.796875 -26.253906 23.265625 -25.828125 C 24.742188 -25.398438 26.039062 -24.847656 27.15625 -24.171875 C 28.269531 -23.503906 29.148438 -22.78125 29.796875 -22 L 27.171875 -19.15625 C 25.972656 -20.15625 24.648438 -20.96875 23.203125 -21.59375 C 21.753906 -22.21875 20.191406 -22.53125 18.515625 -22.53125 C 16.460938 -22.53125 14.625 -22.113281 13 -21.28125 C 11.382812 -20.457031 10.097656 -19.335938 9.140625 -17.921875 C 8.191406 -16.515625 7.71875 -14.914062 7.71875 -13.125 C 7.71875 -11.09375 8.21875 -9.363281 9.21875 -7.9375 C 10.21875 -6.519531 11.535156 -5.4375 13.171875 -4.6875 C 14.804688 -3.9375 16.5625 -3.5625 18.4375 -3.5625 C 20.113281 -3.5625 21.65625 -3.8125 23.0625 -4.3125 C 24.476562 -4.8125 25.601562 -5.488281 26.4375 -6.34375 C 27.28125 -7.207031 27.703125 -8.191406 27.703125 -9.296875 L 18.4375 -9.296875 L 18.4375 -13.234375 L 31.9375 -13.234375 C 31.988281 -12.910156 32.03125 -12.582031 32.0625 -12.25 C 32.101562 -11.925781 32.125 -11.601562 32.125 -11.28125 C 32.125 -9.9375 31.910156 -8.640625 31.484375 -7.390625 C 31.054688 -6.140625 30.46875 -5.0625 29.71875 -4.15625 C 28.570312 -2.738281 27.003906 -1.628906 25.015625 -0.828125 C 23.035156 -0.0234375 20.757812 0.375 18.1875 0.375 C 16.1875 0.375 14.296875 0.0625 12.515625 -0.5625 C 10.742188 -1.1875 9.179688 -2.082031 7.828125 -3.25 C 6.484375 -4.425781 5.421875 -5.847656 4.640625 -7.515625 C 3.867188 -9.179688 3.484375 -11.050781 3.484375 -13.125 C 3.484375 -15.019531 3.863281 -16.769531 4.625 -18.375 C 5.382812 -19.988281 6.445312 -21.398438 7.8125 -22.609375 C 9.175781 -23.828125 10.769531 -24.773438 12.59375 -25.453125 C 14.414062 -26.128906 16.390625 -26.46875 18.515625 -26.46875 Z M 18.515625 -26.46875 "/></g></g></g><g fill="#ffffff" fill-opacity="1"><g transform="translate(144.591596, 309.032599)"><g><path d="M 9.484375 -26.234375 L 9.484375 -14.953125 L 25.484375 -14.953125 L 25.484375 -26.234375 L 29.53125 -26.234375 L 29.53125 0 L 25.484375 0 L 25.484375 -11.0625 L 9.484375 -11.0625 L 9.484375 0 L 5.4375 0 L 5.4375 -26.234375 Z M 9.484375 -26.234375 "/></g></g></g><g fill="#ffffff" fill-opacity="1"><g transform="translate(174.310058, 309.032599)"><g><path d="M 18.25 -26.234375 C 21.226562 -26.234375 23.472656 -25.671875 24.984375 -24.546875 C 26.492188 -23.421875 27.25 -21.785156 27.25 -19.640625 C 27.25 -18.460938 26.929688 -17.40625 26.296875 -16.46875 C 25.660156 -15.53125 24.726562 -14.8125 23.5 -14.3125 C 24.40625 -14.019531 25.25 -13.597656 26.03125 -13.046875 C 26.820312 -12.492188 27.453125 -11.78125 27.921875 -10.90625 C 28.398438 -10.03125 28.640625 -8.96875 28.640625 -7.71875 C 28.640625 -6.195312 28.347656 -4.9375 27.765625 -3.9375 C 27.191406 -2.9375 26.4375 -2.148438 25.5 -1.578125 C 24.570312 -1.003906 23.535156 -0.597656 22.390625 -0.359375 C 21.253906 -0.117188 20.113281 0 18.96875 0 L 5.4375 0 L 5.4375 -26.234375 Z M 18.140625 -22.34375 L 9.484375 -22.34375 L 9.484375 -15.484375 L 18.59375 -15.484375 C 19.789062 -15.503906 20.84375 -15.8125 21.75 -16.40625 C 22.664062 -17.007812 23.125 -17.863281 23.125 -18.96875 C 23.125 -20.1875 22.640625 -21.050781 21.671875 -21.5625 C 20.710938 -22.082031 19.535156 -22.34375 18.140625 -22.34375 Z M 18.78125 -11.578125 L 9.484375 -11.578125 L 9.484375 -3.890625 L 18.96875 -3.890625 C 20.59375 -3.890625 21.921875 -4.207031 22.953125 -4.84375 C 23.992188 -5.488281 24.515625 -6.472656 24.515625 -7.796875 C 24.515625 -8.773438 24.21875 -9.535156 23.625 -10.078125 C 23.039062 -10.628906 22.304688 -11.015625 21.421875 -11.234375 C 20.535156 -11.460938 19.65625 -11.578125 18.78125 -11.578125 Z M 18.78125 -11.578125 "/></g></g></g><g fill="#ffffff" fill-opacity="1"><g transform="translate(201.180303, 309.032599)"><g><path d="M 32.53125 -13.125 C 32.53125 -11.21875 32.175781 -9.445312 31.46875 -7.8125 C 30.757812 -6.175781 29.753906 -4.742188 28.453125 -3.515625 C 27.148438 -2.296875 25.609375 -1.34375 23.828125 -0.65625 C 22.054688 0.03125 20.125 0.375 18.03125 0.375 C 15.882812 0.375 13.921875 0.03125 12.140625 -0.65625 C 10.367188 -1.34375 8.835938 -2.296875 7.546875 -3.515625 C 6.265625 -4.742188 5.265625 -6.175781 4.546875 -7.8125 C 3.835938 -9.445312 3.484375 -11.21875 3.484375 -13.125 C 3.484375 -15.019531 3.835938 -16.785156 4.546875 -18.421875 C 5.265625 -20.054688 6.265625 -21.484375 7.546875 -22.703125 C 8.835938 -23.929688 10.367188 -24.890625 12.140625 -25.578125 C 13.921875 -26.265625 15.882812 -26.609375 18.03125 -26.609375 C 20.125 -26.609375 22.054688 -26.265625 23.828125 -25.578125 C 25.609375 -24.890625 27.148438 -23.929688 28.453125 -22.703125 C 29.753906 -21.484375 30.757812 -20.054688 31.46875 -18.421875 C 32.175781 -16.785156 32.53125 -15.019531 32.53125 -13.125 Z M 28.40625 -13.125 C 28.40625 -14.945312 27.960938 -16.578125 27.078125 -18.015625 C 26.191406 -19.453125 24.96875 -20.585938 23.40625 -21.421875 C 21.84375 -22.253906 20.050781 -22.671875 18.03125 -22.671875 C 15.957031 -22.671875 14.140625 -22.253906 12.578125 -21.421875 C 11.015625 -20.585938 9.796875 -19.453125 8.921875 -18.015625 C 8.046875 -16.578125 7.609375 -14.945312 7.609375 -13.125 C 7.609375 -11.300781 8.046875 -9.671875 8.921875 -8.234375 C 9.796875 -6.796875 11.015625 -5.65625 12.578125 -4.8125 C 14.140625 -3.976562 15.957031 -3.5625 18.03125 -3.5625 C 20.050781 -3.5625 21.84375 -3.976562 23.40625 -4.8125 C 24.96875 -5.65625 26.191406 -6.800781 27.078125 -8.25 C 27.960938 -9.695312 28.40625 -11.320312 28.40625 -13.125 Z M 28.40625 -13.125 "/></g></g></g><g fill="#ffffff" fill-opacity="1"><g transform="translate(231.948107, 309.032599)"><g><path d="M 27.359375 -18.03125 C 27.359375 -16.300781 26.820312 -14.726562 25.75 -13.3125 C 24.675781 -11.90625 23.316406 -10.90625 21.671875 -10.3125 L 28.671875 0.03125 L 23.6875 0 L 17.125 -9.75 L 9.484375 -9.75 L 9.484375 0 L 5.4375 0 L 5.4375 -26.234375 L 18.921875 -26.234375 C 20.398438 -26.234375 21.773438 -25.882812 23.046875 -25.1875 C 24.328125 -24.488281 25.363281 -23.523438 26.15625 -22.296875 C 26.957031 -21.078125 27.359375 -19.65625 27.359375 -18.03125 Z M 18 -22.34375 L 9.484375 -22.34375 L 9.484375 -13.640625 L 18.484375 -13.640625 C 19.359375 -13.640625 20.144531 -13.84375 20.84375 -14.25 C 21.539062 -14.664062 22.09375 -15.210938 22.5 -15.890625 C 22.914062 -16.566406 23.125 -17.289062 23.125 -18.0625 C 23.125 -18.882812 22.882812 -19.617188 22.40625 -20.265625 C 21.9375 -20.921875 21.3125 -21.429688 20.53125 -21.796875 C 19.757812 -22.160156 18.914062 -22.34375 18 -22.34375 Z M 18 -22.34375 "/></g></g></g><g fill="#ffffff" fill-opacity="1"><g transform="translate(259.380486, 309.032599)"><g><path d="M 9.484375 -26.234375 L 9.484375 -14.953125 L 25.484375 -14.953125 L 25.484375 -26.234375 L 29.53125 -26.234375 L 29.53125 0 L 25.484375 0 L 25.484375 -11.0625 L 9.484375 -11.0625 L 9.484375 0 L 5.4375 0 L 5.4375 -26.234375 Z M 9.484375 -26.234375 "/></g></g></g><g fill="#ffffff" fill-opacity="1"><g transform="translate(289.098936, 309.032599)"><g><path d="M 32.53125 -13.125 C 32.53125 -11.21875 32.175781 -9.445312 31.46875 -7.8125 C 30.757812 -6.175781 29.753906 -4.742188 28.453125 -3.515625 C 27.148438 -2.296875 25.609375 -1.34375 23.828125 -0.65625 C 22.054688 0.03125 20.125 0.375 18.03125 0.375 C 15.882812 0.375 13.921875 0.03125 12.140625 -0.65625 C 10.367188 -1.34375 8.835938 -2.296875 7.546875 -3.515625 C 6.265625 -4.742188 5.265625 -6.175781 4.546875 -7.8125 C 3.835938 -9.445312 3.484375 -11.21875 3.484375 -13.125 C 3.484375 -15.019531 3.835938 -16.785156 4.546875 -18.421875 C 5.265625 -20.054688 6.265625 -21.484375 7.546875 -22.703125 C 8.835938 -23.929688 10.367188 -24.890625 12.140625 -25.578125 C 13.921875 -26.265625 15.882812 -26.609375 18.03125 -26.609375 C 20.125 -26.609375 22.054688 -26.265625 23.828125 -25.578125 C 25.609375 -24.890625 27.148438 -23.929688 28.453125 -22.703125 C 29.753906 -21.484375 30.757812 -20.054688 31.46875 -18.421875 C 32.175781 -16.785156 32.53125 -15.019531 32.53125 -13.125 Z M 28.40625 -13.125 C 28.40625 -14.945312 27.960938 -16.578125 27.078125 -18.015625 C 26.191406 -19.453125 24.96875 -20.585938 23.40625 -21.421875 C 21.84375 -22.253906 20.050781 -22.671875 18.03125 -22.671875 C 15.957031 -22.671875 14.140625 -22.253906 12.578125 -21.421875 C 11.015625 -20.585938 9.796875 -19.453125 8.921875 -18.015625 C 8.046875 -16.578125 7.609375 -14.945312 7.609375 -13.125 C 7.609375 -11.300781 8.046875 -9.671875 8.921875 -8.234375 C 9.796875 -6.796875 11.015625 -5.65625 12.578125 -4.8125 C 14.140625 -3.976562 15.957031 -3.5625 18.03125 -3.5625 C 20.050781 -3.5625 21.84375 -3.976562 23.40625 -4.8125 C 24.96875 -5.65625 26.191406 -6.800781 27.078125 -8.25 C 27.960938 -9.695312 28.40625 -11.320312 28.40625 -13.125 Z M 28.40625 -13.125 "/></g></g></g><g fill="#ffffff" fill-opacity="1"><g transform="translate(319.866741, 309.032599)"><g><path d="M 32.53125 -13.125 C 32.53125 -11.21875 32.175781 -9.445312 31.46875 -7.8125 C 30.757812 -6.175781 29.753906 -4.742188 28.453125 -3.515625 C 27.148438 -2.296875 25.609375 -1.34375 23.828125 -0.65625 C 22.054688 0.03125 20.125 0.375 18.03125 0.375 C 15.882812 0.375 13.921875 0.03125 12.140625 -0.65625 C 10.367188 -1.34375 8.835938 -2.296875 7.546875 -3.515625 C 6.265625 -4.742188 5.265625 -6.175781 4.546875 -7.8125 C 3.835938 -9.445312 3.484375 -11.21875 3.484375 -13.125 C 3.484375 -15.019531 3.835938 -16.785156 4.546875 -18.421875 C 5.265625 -20.054688 6.265625 -21.484375 7.546875 -22.703125 C 8.835938 -23.929688 10.367188 -24.890625 12.140625 -25.578125 C 13.921875 -26.265625 15.882812 -26.609375 18.03125 -26.609375 C 20.125 -26.609375 22.054688 -26.265625 23.828125 -25.578125 C 25.609375 -24.890625 27.148438 -23.929688 28.453125 -22.703125 C 29.753906 -21.484375 30.757812 -20.054688 31.46875 -18.421875 C 32.175781 -16.785156 32.53125 -15.019531 32.53125 -13.125 Z M 28.40625 -13.125 C 28.40625 -14.945312 27.960938 -16.578125 27.078125 -18.015625 C 26.191406 -19.453125 24.96875 -20.585938 23.40625 -21.421875 C 21.84375 -22.253906 20.050781 -22.671875 18.03125 -22.671875 C 15.957031 -22.671875 14.140625 -22.253906 12.578125 -21.421875 C 11.015625 -20.585938 9.796875 -19.453125 8.921875 -18.015625 C 8.046875 -16.578125 7.609375 -14.945312 7.609375 -13.125 C 7.609375 -11.300781 8.046875 -9.671875 8.921875 -8.234375 C 9.796875 -6.796875 11.015625 -5.65625 12.578125 -4.8125 C 14.140625 -3.976562 15.957031 -3.5625 18.03125 -3.5625 C 20.050781 -3.5625 21.84375 -3.976562 23.40625 -4.8125 C 24.96875 -5.65625 26.191406 -6.800781 27.078125 -8.25 C 27.960938 -9.695312 28.40625 -11.320312 28.40625 -13.125 Z M 28.40625 -13.125 "/></g></g></g><g fill="#ffffff" fill-opacity="1"><g transform="translate(350.634546, 309.032599)"><g><path d="M 17.390625 -26.234375 C 19.640625 -26.234375 21.613281 -25.890625 23.3125 -25.203125 C 25.007812 -24.515625 26.429688 -23.566406 27.578125 -22.359375 C 28.734375 -21.148438 29.597656 -19.75 30.171875 -18.15625 C 30.742188 -16.570312 31.03125 -14.894531 31.03125 -13.125 C 31.03125 -10.71875 30.519531 -8.519531 29.5 -6.53125 C 28.476562 -4.550781 26.953125 -2.96875 24.921875 -1.78125 C 22.898438 -0.59375 20.390625 0 17.390625 0 L 5.4375 0 L 5.4375 -26.234375 Z M 17.203125 -3.890625 C 19.453125 -3.890625 21.28125 -4.304688 22.6875 -5.140625 C 24.101562 -5.984375 25.140625 -7.097656 25.796875 -8.484375 C 26.460938 -9.878906 26.796875 -11.425781 26.796875 -13.125 C 26.796875 -14.769531 26.460938 -16.289062 25.796875 -17.6875 C 25.140625 -19.09375 24.101562 -20.21875 22.6875 -21.0625 C 21.28125 -21.914062 19.453125 -22.34375 17.203125 -22.34375 L 9.484375 -22.34375 L 9.484375 -3.890625 Z M 17.203125 -3.890625 "/></g></g></g></svg>